# MagicaVoxel @ Ephtracy

# group
o 

# material
mtllib Slab.mtl
usemtl palette

# normals
vn -1 0 0
vn 1 0 0
vn 0 0 1
vn 0 0 -1
vn 0 -1 0
vn 0 1 0

# texcoords
vt 0.833984 0.5
vt 0.994141 0.5

# verts
v 0 2 0
v 0 2 -4
v 0 2.9 0
v 0 2.9 -4
v 0.1 2.9 -0.3
v 0.1 2.9 -3.7
v 0.1 3 -0.3
v 0.1 3 -3.7
v 0.2 2.9 -0.2
v 0.2 2.9 -0.3
v 0.2 2.9 -3.7
v 0.2 2.9 -3.8
v 0.2 3 -0.2
v 0.2 3 -0.3
v 0.2 3 -3.7
v 0.2 3 -3.8
v 0.3 2.9 -0.1
v 0.3 2.9 -0.2
v 0.3 2.9 -3.8
v 0.3 2.9 -3.9
v 0.3 3 -0.1
v 0.3 3 -0.2
v 0.3 3 -3.8
v 0.3 3 -3.9
v 3.7 2.9 -0.1
v 3.7 2.9 -0.2
v 3.7 2.9 -3.8
v 3.7 2.9 -3.9
v 3.7 3 -0.1
v 3.7 3 -0.2
v 3.7 3 -3.8
v 3.7 3 -3.9
v 3.8 2.9 -0.2
v 3.8 2.9 -0.3
v 3.8 2.9 -3.7
v 3.8 2.9 -3.8
v 3.8 3 -0.2
v 3.8 3 -0.3
v 3.8 3 -3.7
v 3.8 3 -3.8
v 3.9 2.9 -0.3
v 3.9 2.9 -3.7
v 3.9 3 -0.3
v 3.9 3 -3.7
v 4 2 0
v 4 2 -4
v 4 2.9 0
v 4 2.9 -4
v 0 2 0
v 0 2.9 0
v 4 2 0
v 4 2.9 0
v 0.3 2.9 -0.1
v 0.3 3 -0.1
v 3.7 2.9 -0.1
v 3.7 3 -0.1
v 0.2 2.9 -0.2
v 0.2 3 -0.2
v 0.3 2.9 -0.2
v 0.3 3 -0.2
v 3.7 2.9 -0.2
v 3.7 3 -0.2
v 3.8 2.9 -0.2
v 3.8 3 -0.2
v 0.1 2.9 -0.3
v 0.1 3 -0.3
v 0.2 2.9 -0.3
v 0.2 3 -0.3
v 3.8 2.9 -0.3
v 3.8 3 -0.3
v 3.9 2.9 -0.3
v 3.9 3 -0.3
v 0.1 2.9 -3.7
v 0.1 3 -3.7
v 0.2 2.9 -3.7
v 0.2 3 -3.7
v 3.8 2.9 -3.7
v 3.8 3 -3.7
v 3.9 2.9 -3.7
v 3.9 3 -3.7
v 0.2 2.9 -3.8
v 0.2 3 -3.8
v 0.3 2.9 -3.8
v 0.3 3 -3.8
v 3.7 2.9 -3.8
v 3.7 3 -3.8
v 3.8 2.9 -3.8
v 3.8 3 -3.8
v 0.3 2.9 -3.9
v 0.3 3 -3.9
v 3.7 2.9 -3.9
v 3.7 3 -3.9
v 0 2 -4
v 0 2.9 -4
v 4 2 -4
v 4 2.9 -4
v 0 2 0
v 4 2 0
v 0 2 -4
v 4 2 -4
v 0 2.9 0
v 4 2.9 0
v 0.3 2.9 -0.1
v 3.7 2.9 -0.1
v 0.2 2.9 -0.2
v 0.3 2.9 -0.2
v 3.7 2.9 -0.2
v 3.8 2.9 -0.2
v 0.1 2.9 -0.3
v 0.2 2.9 -0.3
v 3.8 2.9 -0.3
v 3.9 2.9 -0.3
v 0.1 2.9 -3.7
v 0.2 2.9 -3.7
v 3.8 2.9 -3.7
v 3.9 2.9 -3.7
v 0.2 2.9 -3.8
v 0.3 2.9 -3.8
v 3.7 2.9 -3.8
v 3.8 2.9 -3.8
v 0.3 2.9 -3.9
v 3.7 2.9 -3.9
v 0 2.9 -4
v 4 2.9 -4
v 0.3 3 -0.1
v 3.7 3 -0.1
v 0.2 3 -0.2
v 0.3 3 -0.2
v 0.4 3 -0.2
v 3.6 3 -0.2
v 3.7 3 -0.2
v 3.8 3 -0.2
v 0.1 3 -0.3
v 0.2 3 -0.3
v 0.3 3 -0.3
v 0.4 3 -0.3
v 3.6 3 -0.3
v 3.7 3 -0.3
v 3.8 3 -0.3
v 3.9 3 -0.3
v 0.2 3 -0.4
v 0.3 3 -0.4
v 3.7 3 -0.4
v 3.8 3 -0.4
v 0.2 3 -3.6
v 0.3 3 -3.6
v 3.7 3 -3.6
v 3.8 3 -3.6
v 0.1 3 -3.7
v 0.2 3 -3.7
v 0.3 3 -3.7
v 0.4 3 -3.7
v 3.6 3 -3.7
v 3.7 3 -3.7
v 3.8 3 -3.7
v 3.9 3 -3.7
v 0.2 3 -3.8
v 0.3 3 -3.8
v 0.4 3 -3.8
v 3.6 3 -3.8
v 3.7 3 -3.8
v 3.8 3 -3.8
v 0.3 3 -3.9
v 3.7 3 -3.9

# faces
f 3/2/1 2/2/1 1/2/1
f 4/2/1 2/2/1 3/2/1
f 7/1/1 6/1/1 5/1/1
f 8/1/1 6/1/1 7/1/1
f 13/1/1 10/1/1 9/1/1
f 14/1/1 10/1/1 13/1/1
f 15/1/1 12/1/1 11/1/1
f 16/1/1 12/1/1 15/1/1
f 21/1/1 18/1/1 17/1/1
f 22/1/1 18/1/1 21/1/1
f 23/1/1 20/1/1 19/1/1
f 24/1/1 20/1/1 23/1/1
f 25/1/2 26/1/2 29/1/2
f 29/1/2 26/1/2 30/1/2
f 27/1/2 28/1/2 31/1/2
f 31/1/2 28/1/2 32/1/2
f 33/1/2 34/1/2 37/1/2
f 37/1/2 34/1/2 38/1/2
f 35/1/2 36/1/2 39/1/2
f 39/1/2 36/1/2 40/1/2
f 41/1/2 42/1/2 43/1/2
f 43/1/2 42/1/2 44/1/2
f 45/2/2 46/2/2 47/2/2
f 47/2/2 46/2/2 48/2/2
f 51/2/3 50/2/3 49/2/3
f 52/2/3 50/2/3 51/2/3
f 55/1/3 54/1/3 53/1/3
f 56/1/3 54/1/3 55/1/3
f 59/1/3 58/1/3 57/1/3
f 60/1/3 58/1/3 59/1/3
f 63/1/3 62/1/3 61/1/3
f 64/1/3 62/1/3 63/1/3
f 67/1/3 66/1/3 65/1/3
f 68/1/3 66/1/3 67/1/3
f 71/1/3 70/1/3 69/1/3
f 72/1/3 70/1/3 71/1/3
f 73/1/4 74/1/4 75/1/4
f 75/1/4 74/1/4 76/1/4
f 77/1/4 78/1/4 79/1/4
f 79/1/4 78/1/4 80/1/4
f 81/1/4 82/1/4 83/1/4
f 83/1/4 82/1/4 84/1/4
f 85/1/4 86/1/4 87/1/4
f 87/1/4 86/1/4 88/1/4
f 89/1/4 90/1/4 91/1/4
f 91/1/4 90/1/4 92/1/4
f 93/2/4 94/2/4 95/2/4
f 95/2/4 94/2/4 96/2/4
f 99/2/5 98/2/5 97/2/5
f 100/2/5 98/2/5 99/2/5
f 101/2/6 102/2/6 103/2/6
f 103/2/6 102/2/6 104/2/6
f 101/2/6 103/2/6 105/2/6
f 105/2/6 103/2/6 106/2/6
f 104/2/6 102/2/6 107/2/6
f 107/2/6 102/2/6 108/2/6
f 101/2/6 105/2/6 109/2/6
f 109/2/6 105/2/6 110/2/6
f 108/2/6 102/2/6 111/2/6
f 111/2/6 102/2/6 112/2/6
f 101/2/6 109/2/6 113/2/6
f 112/2/6 102/2/6 116/2/6
f 113/2/6 114/2/6 117/2/6
f 115/2/6 116/2/6 120/2/6
f 117/2/6 118/2/6 121/2/6
f 119/2/6 120/2/6 122/2/6
f 117/2/6 121/2/6 123/2/6
f 121/2/6 122/2/6 123/2/6
f 101/2/6 113/2/6 123/2/6
f 113/2/6 117/2/6 123/2/6
f 122/2/6 120/2/6 124/2/6
f 123/2/6 122/2/6 124/2/6
f 116/2/6 102/2/6 124/2/6
f 120/2/6 116/2/6 124/2/6
f 125/1/6 126/1/6 128/1/6
f 128/1/6 126/1/6 129/1/6
f 129/1/6 126/1/6 130/1/6
f 130/1/6 126/1/6 131/1/6
f 127/1/6 128/1/6 134/1/6
f 128/1/6 129/1/6 134/1/6
f 134/1/6 129/1/6 135/1/6
f 129/2/6 130/2/6 136/2/6
f 135/1/6 129/1/6 136/1/6
f 131/1/6 132/1/6 137/1/6
f 136/2/6 130/2/6 137/2/6
f 130/1/6 131/1/6 137/1/6
f 137/1/6 132/1/6 138/1/6
f 138/1/6 132/1/6 139/1/6
f 133/1/6 134/1/6 141/1/6
f 134/1/6 135/1/6 141/1/6
f 135/2/6 136/2/6 142/2/6
f 141/1/6 135/1/6 142/1/6
f 136/2/6 137/2/6 142/2/6
f 137/2/6 138/2/6 142/2/6
f 139/1/6 140/1/6 143/1/6
f 142/2/6 138/2/6 143/2/6
f 138/1/6 139/1/6 143/1/6
f 143/1/6 140/1/6 144/1/6
f 133/1/6 141/1/6 145/1/6
f 141/2/6 142/2/6 145/2/6
f 143/2/6 144/2/6 145/2/6
f 142/2/6 143/2/6 145/2/6
f 145/2/6 144/2/6 146/2/6
f 146/2/6 144/2/6 147/2/6
f 144/1/6 140/1/6 148/1/6
f 147/2/6 144/2/6 148/2/6
f 133/1/6 145/1/6 149/1/6
f 145/1/6 146/1/6 149/1/6
f 149/1/6 146/1/6 150/1/6
f 146/2/6 147/2/6 151/2/6
f 150/1/6 146/1/6 151/1/6
f 151/2/6 147/2/6 152/2/6
f 152/2/6 147/2/6 153/2/6
f 147/1/6 148/1/6 154/1/6
f 153/2/6 147/2/6 154/2/6
f 148/1/6 140/1/6 155/1/6
f 154/1/6 148/1/6 155/1/6
f 155/1/6 140/1/6 156/1/6
f 150/1/6 151/1/6 157/1/6
f 151/1/6 152/1/6 157/1/6
f 157/1/6 152/1/6 158/1/6
f 152/2/6 153/2/6 159/2/6
f 158/1/6 152/1/6 159/1/6
f 153/1/6 154/1/6 160/1/6
f 159/2/6 153/2/6 160/2/6
f 154/1/6 155/1/6 160/1/6
f 160/1/6 155/1/6 161/1/6
f 161/1/6 155/1/6 162/1/6
f 158/1/6 159/1/6 163/1/6
f 160/1/6 161/1/6 163/1/6
f 159/1/6 160/1/6 163/1/6
f 163/1/6 161/1/6 164/1/6
